<?xml version="1.0" encoding="UTF-8" standalone="no"?>
<!DOCTYPE svg PUBLIC "-//W3C//DTD SVG 1.1//EN" "http://www.w3.org/Graphics/SVG/1.1/DTD/svg11.dtd">
<svg width="100%" height="100%" viewBox="0 0 899 268" version="1.1" xmlns="http://www.w3.org/2000/svg" xmlns:xlink="http://www.w3.org/1999/xlink" xml:space="preserve" xmlns:serif="http://www.serif.com/" style="fill-rule:evenodd;clip-rule:evenodd;stroke-linejoin:round;stroke-miterlimit:2;">
    <g transform="matrix(1,0,0,1,-149.853,-366.092)">
        <g transform="matrix(1,0,0,1,14.4847,220.778)">
            <g transform="matrix(0.721497,0,0,0.721497,96.8562,113.561)">
                <g transform="matrix(0.72499,0,0,0.72499,12.7788,44.0099)">
                    <path d="M143.194,218.977L189.945,162.733C192.593,159.547 192.157,154.819 188.971,152.171C185.787,149.524 181.057,149.96 178.409,153.145L138.335,201.356L129.576,187.128C127.405,183.601 122.786,182.5 119.257,184.673C115.73,186.845 114.631,191.465 116.802,194.991L131.038,218.114C133.73,222.484 139.916,222.921 143.194,218.977Z" style="fill:white;fill-rule:nonzero;"/>
                </g>
                <g transform="matrix(0.72499,0,0,0.72499,12.7788,44.0099)">
                    <path d="M116.804,293.991L131.04,317.114C133.73,321.484 139.916,321.921 143.194,317.976L189.945,261.732C192.593,258.546 192.157,253.818 188.971,251.17C185.787,248.523 181.057,248.958 178.409,252.144L138.335,300.355L129.576,286.127C127.405,282.6 122.786,281.499 119.257,283.672C115.731,285.845 114.632,290.465 116.804,293.991Z" style="fill:white;fill-rule:nonzero;"/>
                </g>
                <g transform="matrix(0.72499,0,0,0.72499,12.7788,44.0099)">
                    <path d="M116.804,393.658L131.04,416.781C133.73,421.151 139.916,421.588 143.194,417.643L189.945,361.399C192.593,358.213 192.157,353.485 188.971,350.837C185.787,348.19 181.057,348.625 178.409,351.811L138.335,400.022L129.576,385.794C127.405,382.267 122.786,381.167 119.257,383.339C115.731,385.512 114.632,390.132 116.804,393.658Z" style="fill:white;fill-rule:nonzero;"/>
                </g>
                <g transform="matrix(0.72499,0,0,0.72499,12.7788,44.0099)">
                    <path d="M448.5,423.405C444.358,423.405 441,426.762 441,430.905L441,485.5C441,491.841 435.841,497 429.5,497L82.5,497C76.159,497 71,491.841 71,485.5L71,156.809C71,152.666 67.642,149.309 63.5,149.309C59.358,149.309 56,152.666 56,156.809L56,485.5C56,500.112 67.888,512 82.5,512L429.5,512C444.112,512 456,500.112 456,485.5L456,430.905C456,426.763 452.642,423.405 448.5,423.405Z" style="fill:white;fill-rule:nonzero;"/>
                </g>
                <g transform="matrix(0.72499,0,0,0.72499,12.7788,44.0099)">
                    <path d="M429.5,57.791L392.812,57.791L392.812,26.8C392.812,12.023 380.79,0 366.012,0C351.234,0 339.212,12.022 339.212,26.8L339.212,57.791L282.8,57.791L282.8,26.8C282.8,12.022 270.777,0 256,0C241.223,0 229.2,12.022 229.2,26.8L229.2,57.791L172.787,57.791L172.787,26.8C172.787,12.023 160.765,0 145.987,0C131.21,0 119.187,12.022 119.187,26.8L119.187,57.791L82.5,57.791C67.888,57.791 56,69.679 56,84.291L56,121.809C56,125.952 59.358,129.309 63.5,129.309C67.642,129.309 71,125.952 71,121.809L71,84.291C71,77.95 76.159,72.791 82.5,72.791L119.187,72.791L119.187,84.7C119.187,99.477 131.209,111.5 145.987,111.5C160.765,111.5 172.787,99.478 172.787,84.7L172.787,72.791L229.2,72.791L229.2,84.7C229.2,99.477 241.222,111.5 256,111.5C270.778,111.5 282.8,99.478 282.8,84.7L282.8,72.791L339.213,72.791L339.213,84.7C339.213,99.477 351.235,111.5 366.013,111.5C380.79,111.5 392.813,99.478 392.813,84.7L392.813,72.791L429.5,72.791C435.841,72.791 441,77.95 441,84.291L441,395.905C441,400.048 444.358,403.405 448.5,403.405C452.642,403.405 456,400.048 456,395.905L456,84.291C456,69.679 444.112,57.791 429.5,57.791ZM157.788,84.7C157.788,91.207 152.495,96.5 145.988,96.5C139.482,96.5 134.188,91.207 134.188,84.7L134.188,26.8C134.188,20.293 139.481,15 145.988,15C152.495,15 157.788,20.293 157.788,26.8L157.788,84.7ZM267.8,84.7C267.8,91.207 262.507,96.5 256,96.5C249.493,96.5 244.2,91.207 244.2,84.7L244.2,26.8C244.2,20.293 249.493,15 256,15C262.507,15 267.8,20.293 267.8,26.8L267.8,84.7ZM377.813,84.7C377.813,91.207 372.52,96.5 366.013,96.5C359.506,96.5 354.213,91.207 354.213,84.7L354.213,26.8C354.213,20.293 359.506,15 366.013,15C372.519,15 377.813,20.293 377.813,26.8L377.813,84.7Z" style="fill:white;fill-rule:nonzero;"/>
                </g>
                <g transform="matrix(0.72499,0,0,0.72499,12.7788,44.0099)">
                    <path d="M221.739,225.183L379.739,225.183C392.697,225.183 403.239,214.641 403.239,201.683C403.239,188.725 392.697,178.183 379.739,178.183L221.739,178.183C208.781,178.183 198.239,188.725 198.239,201.683C198.239,214.641 208.781,225.183 221.739,225.183ZM221.739,193.183L379.739,193.183C384.426,193.183 388.239,196.996 388.239,201.683C388.239,206.37 384.426,210.183 379.739,210.183L221.739,210.183C217.052,210.183 213.239,206.37 213.239,201.683C213.239,196.996 217.052,193.183 221.739,193.183Z" style="fill:white;fill-rule:nonzero;"/>
                </g>
                <g transform="matrix(0.72499,0,0,0.72499,12.7788,44.0099)">
                    <path d="M221.739,324.396L379.739,324.396C392.697,324.396 403.239,313.854 403.239,300.896C403.239,287.938 392.697,277.396 379.739,277.396L221.739,277.396C208.781,277.396 198.239,287.938 198.239,300.896C198.239,313.854 208.781,324.396 221.739,324.396ZM221.739,292.396L379.739,292.396C384.426,292.396 388.239,296.209 388.239,300.896C388.239,305.583 384.426,309.396 379.739,309.396L221.739,309.396C217.052,309.396 213.239,305.583 213.239,300.896C213.239,296.209 217.052,292.396 221.739,292.396Z" style="fill:white;fill-rule:nonzero;"/>
                </g>
                <g transform="matrix(0.72499,0,0,0.72499,12.7788,44.0099)">
                    <path d="M221.739,423.608L379.739,423.608C392.697,423.608 403.239,413.066 403.239,400.108C403.239,387.15 392.697,376.608 379.739,376.608L221.739,376.608C208.781,376.608 198.239,387.15 198.239,400.108C198.239,413.066 208.781,423.608 221.739,423.608ZM221.739,391.608L379.739,391.608C384.426,391.608 388.239,395.421 388.239,400.108C388.239,404.795 384.426,408.608 379.739,408.608L221.739,408.608C217.052,408.608 213.239,404.795 213.239,400.108C213.239,395.421 217.052,391.608 221.739,391.608Z" style="fill:white;fill-rule:nonzero;"/>
                </g>
            </g>
        </g>
        <g transform="matrix(1,0,0,1,14.4847,220.778)">
            <g transform="matrix(0.721497,0,0,0.721497,96.1145,126.866)">
                <g transform="matrix(1.00252,0,0,1.00252,-92.3891,-111.53)">
                    <g transform="matrix(195.014,0,0,195.014,499.347,347.669)">
                        <path d="M0.202,-0.7L0.04,-0.7L0.04,0L0.15,0L0.15,-0.263L0.202,-0.263C0.312,-0.263 0.366,-0.324 0.366,-0.436L0.366,-0.527C0.366,-0.639 0.312,-0.7 0.202,-0.7ZM0.202,-0.6C0.237,-0.6 0.256,-0.584 0.256,-0.534L0.256,-0.429C0.256,-0.379 0.237,-0.363 0.202,-0.363L0.15,-0.363L0.15,-0.6L0.202,-0.6Z" style="fill:white;fill-rule:nonzero;"/>
                    </g>
                    <g transform="matrix(195.014,0,0,195.014,571.307,347.669)">
                        <path d="M0.284,-0.7L0.123,-0.7L0.011,0L0.112,0L0.131,-0.127L0.266,-0.127L0.285,0L0.396,0L0.284,-0.7ZM0.198,-0.576L0.251,-0.222L0.145,-0.222L0.198,-0.576Z" style="fill:white;fill-rule:nonzero;"/>
                    </g>
                    <g transform="matrix(195.014,0,0,195.014,650.677,347.669)">
                        <path d="M0.291,0L0.404,0L0.251,-0.388L0.404,-0.7L0.294,-0.7L0.15,-0.395L0.15,-0.7L0.04,-0.7L0.04,0L0.15,0L0.15,-0.215L0.184,-0.279L0.291,0Z" style="fill:white;fill-rule:nonzero;"/>
                    </g>
                    <g transform="matrix(195.014,0,0,195.014,730.633,347.669)">
                        <path d="M0.035,-0.7L0.035,-0.167C0.035,-0.055 0.091,0.009 0.199,0.009C0.307,0.009 0.363,-0.055 0.363,-0.167L0.363,-0.7L0.259,-0.7L0.259,-0.16C0.259,-0.11 0.237,-0.092 0.202,-0.092C0.167,-0.092 0.145,-0.11 0.145,-0.16L0.145,-0.7L0.035,-0.7Z" style="fill:white;fill-rule:nonzero;"/>
                    </g>
                    <g transform="matrix(195.014,0,0,195.014,808.248,347.669)">
                        <path d="M0.01,0C0.028,0.002 0.043,0.002 0.063,0.002C0.146,0.002 0.221,-0.034 0.221,-0.174L0.221,-0.7L0.111,-0.7L0.111,-0.166C0.111,-0.112 0.083,-0.099 0.048,-0.099C0.036,-0.099 0.022,-0.099 0.01,-0.1L0.01,0Z" style="fill:white;fill-rule:nonzero;"/>
                    </g>
                    <g transform="matrix(195.014,0,0,195.014,888.399,347.669)">
                        <path d="M0.026,-0.532C0.026,-0.332 0.241,-0.305 0.241,-0.161C0.241,-0.111 0.219,-0.093 0.184,-0.093C0.149,-0.093 0.127,-0.111 0.127,-0.161L0.127,-0.211L0.023,-0.211L0.023,-0.168C0.023,-0.056 0.079,0.008 0.187,0.008C0.295,0.008 0.351,-0.056 0.351,-0.168C0.351,-0.368 0.136,-0.395 0.136,-0.539C0.136,-0.589 0.156,-0.608 0.191,-0.608C0.226,-0.608 0.246,-0.589 0.246,-0.539L0.246,-0.51L0.35,-0.51L0.35,-0.532C0.35,-0.644 0.295,-0.708 0.188,-0.708C0.081,-0.708 0.026,-0.644 0.026,-0.532Z" style="fill:white;fill-rule:nonzero;"/>
                    </g>
                    <g transform="matrix(195.014,0,0,195.014,961.334,347.669)">
                        <rect x="0.04" y="-0.7" width="0.11" height="0.7" style="fill:white;fill-rule:nonzero;"/>
                    </g>
                    <g transform="matrix(195.014,0,0,195.014,998.386,347.669)">
                        <path d="M0.15,-0.6L0.34,-0.6L0.34,-0.7L0.04,-0.7L0.04,0L0.252,0C0.207,0.023 0.185,0.053 0.185,0.085C0.185,0.126 0.219,0.147 0.272,0.147C0.3,0.147 0.317,0.145 0.34,0.136L0.34,0.08C0.329,0.083 0.324,0.086 0.304,0.086C0.286,0.086 0.269,0.077 0.269,0.058C0.269,0.044 0.274,0.021 0.299,0L0.34,0L0.34,-0.1L0.15,-0.1L0.15,-0.305L0.301,-0.305L0.301,-0.405L0.15,-0.405L0.15,-0.6Z" style="fill:white;fill-rule:nonzero;"/>
                    </g>
                    <g transform="matrix(195.014,0,0,195.014,1070.15,347.669)">
                        <path d="M0.136,-0.155L0.15,-0.408L0.15,-0.7L0.04,-0.7L0.04,-0.408L0.054,-0.155L0.136,-0.155ZM0.042,-0.106L0.042,0L0.148,0L0.148,-0.106L0.042,-0.106Z" style="fill:white;fill-rule:nonzero;"/>
                    </g>
                </g>
                <g transform="matrix(0.586694,0,0,0.586694,116.253,4.72734)">
                    <g transform="matrix(140.471,0,0,140.471,500.712,588.763)">
                        <path d="M0.621,0L0.53,0L0.164,-0.557L0.164,0L0.073,0L0.073,-0.705L0.164,-0.705L0.53,-0.147L0.53,-0.705L0.621,-0.705L0.621,0Z" style="fill:white;fill-rule:nonzero;"/>
                    </g>
                    <g transform="matrix(140.471,0,0,140.471,598.198,588.763)">
                        <path d="M0.486,-0.163L0.176,-0.163L0.117,0L0.019,0L0.28,-0.692L0.383,-0.692L0.643,0L0.545,0L0.486,-0.163ZM0.46,-0.234L0.331,-0.59L0.202,-0.234L0.46,-0.234Z" style="fill:white;fill-rule:nonzero;"/>
                    </g>
                    <g transform="matrix(140.471,0,0,140.471,725.886,588.763)">
                        <path d="M0.447,0L0.263,-0.288L0.164,-0.288L0.164,0L0.073,0L0.073,-0.705L0.305,-0.705C0.385,-0.705 0.445,-0.686 0.485,-0.648C0.525,-0.609 0.545,-0.558 0.545,-0.495C0.545,-0.438 0.529,-0.392 0.497,-0.357C0.465,-0.321 0.419,-0.3 0.358,-0.291L0.55,0L0.447,0ZM0.164,-0.354L0.297,-0.354C0.4,-0.354 0.452,-0.399 0.452,-0.49C0.452,-0.581 0.4,-0.626 0.297,-0.626L0.164,-0.626L0.164,-0.354Z" style="fill:white;fill-rule:nonzero;"/>
                    </g>
                    <g transform="matrix(140.471,0,0,140.471,807.781,588.763)">
                        <path d="M0.164,-0.631L0.164,-0.39L0.432,-0.39L0.432,-0.32L0.164,-0.32L0.164,-0.074L0.462,-0.074L0.462,0L0.073,0L0.073,-0.705L0.462,-0.705L0.462,-0.631L0.164,-0.631Z" style="fill:white;fill-rule:nonzero;"/>
                    </g>
                    <g transform="matrix(140.471,0,0,140.471,878.859,588.763)">
                        <path d="M0.416,-0.705L0.416,-0.181C0.416,-0.123 0.4,-0.077 0.367,-0.044C0.333,-0.01 0.287,0.007 0.228,0.007C0.164,0.007 0.114,-0.012 0.078,-0.05C0.041,-0.087 0.023,-0.14 0.023,-0.208L0.114,-0.208C0.114,-0.167 0.123,-0.135 0.141,-0.112C0.159,-0.088 0.187,-0.076 0.224,-0.076C0.259,-0.076 0.285,-0.086 0.301,-0.106C0.317,-0.126 0.325,-0.151 0.325,-0.181L0.325,-0.705L0.416,-0.705Z" style="fill:white;fill-rule:nonzero;"/>
                    </g>
                    <g transform="matrix(140.471,0,0,140.471,946.846,588.763)">
                        <path d="M0.519,-0.183C0.519,-0.15 0.511,-0.119 0.495,-0.09C0.479,-0.061 0.455,-0.038 0.422,-0.02C0.389,-0.002 0.349,0.007 0.301,0.007C0.254,0.007 0.213,-0.001 0.177,-0.019C0.14,-0.035 0.111,-0.059 0.09,-0.089C0.068,-0.118 0.055,-0.152 0.052,-0.19L0.149,-0.19C0.151,-0.17 0.158,-0.151 0.17,-0.132C0.181,-0.113 0.198,-0.097 0.22,-0.085C0.241,-0.072 0.267,-0.066 0.298,-0.066C0.338,-0.066 0.369,-0.077 0.39,-0.098C0.411,-0.119 0.422,-0.147 0.422,-0.18C0.422,-0.209 0.415,-0.232 0.4,-0.25C0.385,-0.268 0.366,-0.282 0.344,-0.293C0.322,-0.303 0.292,-0.314 0.254,-0.326C0.209,-0.341 0.173,-0.355 0.147,-0.368C0.119,-0.381 0.096,-0.4 0.078,-0.426C0.058,-0.452 0.049,-0.486 0.049,-0.529C0.049,-0.566 0.058,-0.598 0.076,-0.626C0.093,-0.654 0.119,-0.676 0.152,-0.691C0.185,-0.706 0.223,-0.714 0.268,-0.714C0.337,-0.714 0.392,-0.697 0.433,-0.664C0.474,-0.63 0.497,-0.587 0.504,-0.535L0.406,-0.535C0.401,-0.563 0.386,-0.588 0.363,-0.609C0.34,-0.63 0.308,-0.641 0.268,-0.641C0.231,-0.641 0.202,-0.632 0.18,-0.613C0.158,-0.594 0.147,-0.567 0.147,-0.532C0.147,-0.505 0.154,-0.483 0.169,-0.466C0.183,-0.448 0.201,-0.435 0.222,-0.426C0.243,-0.416 0.273,-0.405 0.31,-0.393C0.355,-0.378 0.392,-0.364 0.42,-0.351C0.447,-0.338 0.471,-0.318 0.49,-0.291C0.509,-0.264 0.519,-0.228 0.519,-0.183Z" style="fill:white;fill-rule:nonzero;"/>
                    </g>
                    <g transform="matrix(140.471,0,0,140.471,1061.33,588.763)">
                        <path d="M0.519,-0.183C0.519,-0.15 0.511,-0.119 0.495,-0.09C0.479,-0.061 0.455,-0.038 0.422,-0.02C0.389,-0.002 0.349,0.007 0.301,0.007C0.254,0.007 0.213,-0.001 0.177,-0.019C0.14,-0.035 0.111,-0.059 0.09,-0.089C0.068,-0.118 0.055,-0.152 0.052,-0.19L0.149,-0.19C0.151,-0.17 0.158,-0.151 0.17,-0.132C0.181,-0.113 0.198,-0.097 0.22,-0.085C0.241,-0.072 0.267,-0.066 0.298,-0.066C0.338,-0.066 0.369,-0.077 0.39,-0.098C0.411,-0.119 0.422,-0.147 0.422,-0.18C0.422,-0.209 0.415,-0.232 0.4,-0.25C0.385,-0.268 0.366,-0.282 0.344,-0.293C0.322,-0.303 0.292,-0.314 0.254,-0.326C0.209,-0.341 0.173,-0.355 0.147,-0.368C0.119,-0.381 0.096,-0.4 0.078,-0.426C0.058,-0.452 0.049,-0.486 0.049,-0.529C0.049,-0.566 0.058,-0.598 0.076,-0.626C0.093,-0.654 0.119,-0.676 0.152,-0.691C0.185,-0.706 0.223,-0.714 0.268,-0.714C0.337,-0.714 0.392,-0.697 0.433,-0.664C0.474,-0.63 0.497,-0.587 0.504,-0.535L0.406,-0.535C0.401,-0.563 0.386,-0.588 0.363,-0.609C0.34,-0.63 0.308,-0.641 0.268,-0.641C0.231,-0.641 0.202,-0.632 0.18,-0.613C0.158,-0.594 0.147,-0.567 0.147,-0.532C0.147,-0.505 0.154,-0.483 0.169,-0.466C0.183,-0.448 0.201,-0.435 0.222,-0.426C0.243,-0.416 0.273,-0.405 0.31,-0.393C0.355,-0.378 0.392,-0.364 0.42,-0.351C0.447,-0.338 0.471,-0.318 0.49,-0.291C0.509,-0.264 0.519,-0.228 0.519,-0.183ZM0.449,-0.866L0.236,-0.749L0.236,-0.814L0.449,-0.94L0.449,-0.866Z" style="fill:white;fill-rule:nonzero;"/>
                    </g>
                    <g transform="matrix(140.471,0,0,140.471,1141.12,588.763)">
                        <path d="M0.447,0L0.263,-0.288L0.164,-0.288L0.164,0L0.073,0L0.073,-0.705L0.305,-0.705C0.385,-0.705 0.445,-0.686 0.485,-0.648C0.525,-0.609 0.545,-0.558 0.545,-0.495C0.545,-0.438 0.529,-0.392 0.497,-0.357C0.465,-0.321 0.419,-0.3 0.358,-0.291L0.55,0L0.447,0ZM0.164,-0.354L0.297,-0.354C0.4,-0.354 0.452,-0.399 0.452,-0.49C0.452,-0.581 0.4,-0.626 0.297,-0.626L0.164,-0.626L0.164,-0.354Z" style="fill:white;fill-rule:nonzero;"/>
                    </g>
                    <g transform="matrix(140.471,0,0,140.471,1223.01,588.763)">
                        <path d="M0.396,-0.714C0.461,-0.714 0.52,-0.699 0.573,-0.668C0.625,-0.637 0.666,-0.595 0.696,-0.54C0.726,-0.485 0.741,-0.422 0.741,-0.353C0.741,-0.284 0.726,-0.222 0.696,-0.167C0.666,-0.112 0.625,-0.069 0.573,-0.038C0.52,-0.007 0.461,0.008 0.396,0.008C0.331,0.008 0.272,-0.007 0.219,-0.038C0.166,-0.069 0.124,-0.112 0.094,-0.167C0.064,-0.222 0.049,-0.284 0.049,-0.353C0.049,-0.422 0.064,-0.485 0.094,-0.54C0.124,-0.595 0.166,-0.637 0.219,-0.668C0.272,-0.699 0.331,-0.714 0.396,-0.714ZM0.396,-0.629C0.347,-0.629 0.304,-0.618 0.266,-0.596C0.227,-0.573 0.197,-0.541 0.176,-0.5C0.154,-0.458 0.143,-0.409 0.143,-0.353C0.143,-0.298 0.154,-0.249 0.176,-0.207C0.197,-0.165 0.227,-0.133 0.266,-0.111C0.304,-0.088 0.347,-0.077 0.396,-0.077C0.444,-0.077 0.487,-0.088 0.526,-0.111C0.564,-0.134 0.594,-0.166 0.616,-0.208C0.637,-0.249 0.648,-0.298 0.648,-0.353C0.648,-0.409 0.637,-0.458 0.616,-0.5C0.594,-0.541 0.564,-0.573 0.526,-0.596C0.487,-0.618 0.444,-0.629 0.396,-0.629ZM0.56,-0.866L0.347,-0.749L0.347,-0.814L0.56,-0.94L0.56,-0.866Z" style="fill:white;fill-rule:nonzero;"/>
                    </g>
                    <g transform="matrix(140.471,0,0,140.471,1334.12,588.763)">
                        <path d="M0.667,-0.353C0.667,-0.282 0.653,-0.22 0.624,-0.167C0.595,-0.114 0.553,-0.073 0.498,-0.044C0.442,-0.015 0.375,0 0.297,0L0.073,0L0.073,-0.705L0.297,-0.705C0.375,-0.705 0.442,-0.691 0.498,-0.663C0.553,-0.634 0.595,-0.594 0.624,-0.541C0.653,-0.488 0.667,-0.425 0.667,-0.353ZM0.29,-0.082C0.382,-0.082 0.452,-0.106 0.501,-0.153C0.55,-0.2 0.574,-0.267 0.574,-0.353C0.574,-0.439 0.55,-0.506 0.502,-0.554C0.453,-0.601 0.383,-0.625 0.29,-0.625L0.164,-0.625L0.164,-0.082L0.29,-0.082Z" style="fill:white;fill-rule:nonzero;"/>
                    </g>
                    <g transform="matrix(140.471,0,0,140.471,1434.84,588.763)">
                        <path d="M0.164,-0.071L0.414,-0.071L0.414,0L0.073,0L0.073,-0.705L0.164,-0.705L0.164,-0.071Z" style="fill:white;fill-rule:nonzero;"/>
                    </g>
                    <g transform="matrix(140.471,0,0,140.471,1495.81,588.763)">
                        <path d="M0.682,0.147L0.682,0.2L0.579,0.2C0.541,0.2 0.51,0.191 0.487,0.173C0.463,0.155 0.451,0.129 0.451,0.096C0.451,0.071 0.459,0.05 0.474,0.033C0.489,0.016 0.512,0.004 0.544,-0.002L0.486,-0.163L0.176,-0.163L0.117,0L0.019,0L0.28,-0.692L0.383,-0.692L0.641,-0.005L0.641,0.04L0.587,0.04C0.565,0.04 0.548,0.045 0.536,0.054C0.523,0.063 0.517,0.076 0.517,0.093C0.517,0.11 0.523,0.123 0.536,0.133C0.548,0.142 0.565,0.147 0.587,0.147L0.682,0.147ZM0.46,-0.234L0.331,-0.59L0.202,-0.234L0.46,-0.234Z" style="fill:white;fill-rule:nonzero;"/>
                    </g>
                    <g transform="matrix(140.471,0,0,140.471,1588.8,588.763)">
                        <path d="M0.667,-0.353C0.667,-0.282 0.653,-0.22 0.624,-0.167C0.595,-0.114 0.553,-0.073 0.498,-0.044C0.442,-0.015 0.375,0 0.297,0L0.073,0L0.073,-0.705L0.297,-0.705C0.375,-0.705 0.442,-0.691 0.498,-0.663C0.553,-0.634 0.595,-0.594 0.624,-0.541C0.653,-0.488 0.667,-0.425 0.667,-0.353ZM0.29,-0.082C0.382,-0.082 0.452,-0.106 0.501,-0.153C0.55,-0.2 0.574,-0.267 0.574,-0.353C0.574,-0.439 0.55,-0.506 0.502,-0.554C0.453,-0.601 0.383,-0.625 0.29,-0.625L0.164,-0.625L0.164,-0.082L0.29,-0.082Z" style="fill:white;fill-rule:nonzero;"/>
                    </g>
                    <g transform="matrix(140.471,0,0,140.471,1689.51,588.763)">
                        <path d="M0.396,-0.714C0.461,-0.714 0.52,-0.699 0.573,-0.668C0.625,-0.637 0.666,-0.595 0.696,-0.54C0.726,-0.485 0.741,-0.422 0.741,-0.353C0.741,-0.284 0.726,-0.222 0.696,-0.167C0.666,-0.112 0.625,-0.069 0.573,-0.038C0.52,-0.007 0.461,0.008 0.396,0.008C0.331,0.008 0.272,-0.007 0.219,-0.038C0.166,-0.069 0.124,-0.112 0.094,-0.167C0.064,-0.222 0.049,-0.284 0.049,-0.353C0.049,-0.422 0.064,-0.485 0.094,-0.54C0.124,-0.595 0.166,-0.637 0.219,-0.668C0.272,-0.699 0.331,-0.714 0.396,-0.714ZM0.396,-0.629C0.347,-0.629 0.304,-0.618 0.266,-0.596C0.227,-0.573 0.197,-0.541 0.176,-0.5C0.154,-0.458 0.143,-0.409 0.143,-0.353C0.143,-0.298 0.154,-0.249 0.176,-0.207C0.197,-0.165 0.227,-0.133 0.266,-0.111C0.304,-0.088 0.347,-0.077 0.396,-0.077C0.444,-0.077 0.487,-0.088 0.526,-0.111C0.564,-0.134 0.594,-0.166 0.616,-0.208C0.637,-0.249 0.648,-0.298 0.648,-0.353C0.648,-0.409 0.637,-0.458 0.616,-0.5C0.594,-0.541 0.564,-0.573 0.526,-0.596C0.487,-0.618 0.444,-0.629 0.396,-0.629Z" style="fill:white;fill-rule:nonzero;"/>
                    </g>
                    <g transform="matrix(140.471,0,0,140.471,1800.63,588.763)">
                        <path d="M0.94,-0.705L0.761,0L0.65,0L0.487,-0.576L0.324,0L0.213,0L0.033,-0.705L0.134,-0.705L0.269,-0.106L0.436,-0.705L0.537,-0.705L0.704,-0.108L0.84,-0.705L0.94,-0.705Z" style="fill:white;fill-rule:nonzero;"/>
                    </g>
                    <g transform="matrix(140.471,0,0,140.471,1937.45,588.763)">
                        <path d="M0.574,-0.705L0.343,-0.267L0.343,0L0.251,0L0.251,-0.267L0.019,-0.705L0.125,-0.705L0.298,-0.364L0.47,-0.705L0.574,-0.705Z" style="fill:white;fill-rule:nonzero;"/>
                    </g>
                </g>
            </g>
        </g>
    </g>
</svg>
